<svg width="40" height="40" viewBox="0 0 40 40" fill="none" xmlns="http://www.w3.org/2000/svg">
<path d="M29.1667 10.8333H29.1833M11.6667 3.33331H28.3333C32.9357 3.33331 36.6667 7.06427 36.6667 11.6666V28.3333C36.6667 32.9357 32.9357 36.6666 28.3333 36.6666H11.6667C7.0643 36.6666 3.33334 32.9357 3.33334 28.3333V11.6666C3.33334 7.06427 7.0643 3.33331 11.6667 3.33331ZM26.6667 18.95C26.8724 20.3371 26.6354 21.7537 25.9896 22.9983C25.3438 24.243 24.3219 25.2523 23.0694 25.8828C21.8168 26.5132 20.3974 26.7326 19.013 26.5099C17.6285 26.2871 16.3496 25.6335 15.3581 24.6419C14.3665 23.6504 13.7129 22.3714 13.4901 20.987C13.2673 19.6026 13.4868 18.1831 14.1172 16.9306C14.7476 15.6781 15.757 14.6562 17.0016 14.0104C18.2463 13.3646 19.6629 13.1276 21.05 13.3333C22.4649 13.5431 23.7748 14.2024 24.7862 15.2138C25.7976 16.2252 26.4569 17.5351 26.6667 18.95Z" stroke="#1E1E1E" stroke-width="3.5" stroke-linecap="round" stroke-linejoin="round"/>
</svg>
