<svg width="33" height="35" viewBox="0 0 33 35" fill="none" xmlns="http://www.w3.org/2000/svg">
<g clip-path="url(#clip0_2_24)">
<path d="M30.9925 25.6375C30.8292 26.3296 30.4965 26.9638 30.0282 27.4759C29.5598 27.988 28.9723 28.36 28.325 28.5542C25.96 29.1667 16.5 29.1667 16.5 29.1667C16.5 29.1667 7.04 29.1667 4.675 28.4959C4.02772 28.3016 3.44022 27.9297 2.97185 27.4176C2.50348 26.9054 2.17083 26.2713 2.0075 25.5792C1.57467 23.0336 1.36295 20.4512 1.375 17.8646C1.35957 15.2585 1.57131 12.6565 2.0075 10.0917C2.18757 9.42108 2.52767 8.81106 2.99495 8.32057C3.46222 7.83008 4.04088 7.47571 4.675 7.29169C7.04 6.62085 16.5 6.62085 16.5 6.62085C16.5 6.62085 25.96 6.62085 28.325 7.29169C28.9723 7.48591 29.5598 7.85787 30.0282 8.36999C30.4965 8.8821 30.8292 9.51624 30.9925 10.2084C31.422 12.7348 31.6337 15.2974 31.625 17.8646C31.6404 20.4707 31.4287 23.0728 30.9925 25.6375Z" stroke="#1E1E1E" stroke-width="3" stroke-linecap="round" stroke-linejoin="round"/>
<path d="M13.4063 13.0959L21.3125 17.8646L13.4063 22.6334V13.0959Z" stroke="#1E1E1E" stroke-width="3" stroke-linecap="round" stroke-linejoin="round"/>
</g>
<defs>
<clipPath id="clip0_2_24">
<rect width="33" height="35" fill="white" transform="matrix(1 0 0 -1 0 35)"/>
</clipPath>
</defs>
</svg>
