<svg width="44" height="55" viewBox="0 0 44 55" fill="none" xmlns="http://www.w3.org/2000/svg">
<path d="M22.0002 27.5C19.9835 27.5 18.2571 26.6024 16.821 24.8073C15.3849 23.0121 14.6668 20.8542 14.6668 18.3333C14.6668 15.8125 15.3849 13.6545 16.821 11.8594C18.2571 10.0642 19.9835 9.16666 22.0002 9.16666C24.0168 9.16666 25.7432 10.0642 27.1793 11.8594C28.6154 13.6545 29.3335 15.8125 29.3335 18.3333C29.3335 20.8542 28.6154 23.0121 27.1793 24.8073C25.7432 26.6024 24.0168 27.5 22.0002 27.5ZM7.3335 45.8333V39.4167C7.3335 38.118 7.60086 36.9245 8.13558 35.8359C8.6703 34.7474 9.38072 33.9167 10.2668 33.3437C12.1613 32.1597 14.0863 31.2717 16.0418 30.6797C17.9974 30.0877 19.9835 29.7917 22.0002 29.7917C24.0168 29.7917 26.0029 30.0877 27.9585 30.6797C29.9141 31.2717 31.8391 32.1597 33.7335 33.3437C34.6196 33.9167 35.33 34.7474 35.8647 35.8359C36.3995 36.9245 36.6668 38.118 36.6668 39.4167V45.8333H7.3335ZM11.0002 41.25H33.0002V39.4167C33.0002 38.9965 32.9161 38.6146 32.7481 38.2708C32.58 37.9271 32.3585 37.6597 32.0835 37.4687C30.4335 36.4375 28.7682 35.6641 27.0877 35.1484C25.4071 34.6328 23.7113 34.375 22.0002 34.375C20.2891 34.375 18.5932 34.6328 16.9127 35.1484C15.2321 35.6641 13.5668 36.4375 11.9168 37.4687C11.6418 37.6597 11.4203 37.9271 11.2522 38.2708C11.0842 38.6146 11.0002 38.9965 11.0002 39.4167V41.25ZM22.0002 22.9167C23.0085 22.9167 23.8717 22.4679 24.5897 21.5703C25.3078 20.6727 25.6668 19.5937 25.6668 18.3333C25.6668 17.0729 25.3078 15.9939 24.5897 15.0963C23.8717 14.1988 23.0085 13.75 22.0002 13.75C20.9918 13.75 20.1286 14.1988 19.4106 15.0963C18.6925 15.9939 18.3335 17.0729 18.3335 18.3333C18.3335 19.5937 18.6925 20.6727 19.4106 21.5703C20.1286 22.4679 20.9918 22.9167 22.0002 22.9167Z" fill="#1D1B20"/>
</svg>
