<svg width="55" height="53" viewBox="0 0 55 53" fill="none" xmlns="http://www.w3.org/2000/svg">
<path d="M21.1979 48.5833L20.2812 41.5167C19.7847 41.3326 19.3168 41.1118 18.8776 40.8542C18.4384 40.5965 18.0087 40.3205 17.5885 40.026L10.7708 42.7865L4.46875 32.2969L10.3698 27.9906C10.3316 27.733 10.3125 27.4845 10.3125 27.2453V25.7547C10.3125 25.5154 10.3316 25.267 10.3698 25.0094L4.46875 20.7031L10.7708 10.2135L17.5885 12.9739C18.0087 12.6795 18.4479 12.4035 18.9062 12.1458C19.3646 11.8882 19.8229 11.6674 20.2812 11.4833L21.1979 4.41666H33.8021L34.7187 11.4833C35.2153 11.6674 35.6832 11.8882 36.1224 12.1458C36.5616 12.4035 36.9913 12.6795 37.4115 12.9739L44.2292 10.2135L50.5312 20.7031L44.6302 25.0094C44.6684 25.267 44.6875 25.5154 44.6875 25.7547V27.2453C44.6875 27.4845 44.6493 27.733 44.5729 27.9906L50.474 32.2969L44.1719 42.7865L37.4115 40.026C36.9913 40.3205 36.5521 40.5965 36.0937 40.8542C35.6354 41.1118 35.1771 41.3326 34.7187 41.5167L33.8021 48.5833H21.1979ZM25.2083 44.1667H29.7344L30.5365 38.3146C31.7205 38.0201 32.8186 37.5877 33.8307 37.0172C34.8429 36.4467 35.7691 35.7566 36.6094 34.9469L42.2812 37.2104L44.5156 33.4562L39.5885 29.8677C39.7795 29.3524 39.9132 28.8095 39.9896 28.2391C40.066 27.6686 40.1042 27.0889 40.1042 26.5C40.1042 25.9111 40.066 25.3314 39.9896 24.7609C39.9132 24.1904 39.7795 23.6476 39.5885 23.1323L44.5156 19.5437L42.2812 15.7896L36.6094 18.1083C35.7691 17.2618 34.8429 16.5533 33.8307 15.9828C32.8186 15.4123 31.7205 14.9799 30.5365 14.6854L29.7917 8.83332H25.2656L24.4635 14.6854C23.2795 14.9799 22.1814 15.4123 21.1693 15.9828C20.1571 16.5533 19.2309 17.2434 18.3906 18.0531L12.7187 15.7896L10.4844 19.5437L15.4115 23.0771C15.2205 23.6292 15.0868 24.1812 15.0104 24.7333C14.934 25.2854 14.8958 25.8743 14.8958 26.5C14.8958 27.0889 14.934 27.6594 15.0104 28.2115C15.0868 28.7635 15.2205 29.3156 15.4115 29.8677L10.4844 33.4562L12.7187 37.2104L18.3906 34.8917C19.2309 35.7382 20.1571 36.4467 21.1693 37.0172C22.1814 37.5877 23.2795 38.0201 24.4635 38.3146L25.2083 44.1667ZM27.6146 34.2292C29.8299 34.2292 31.7205 33.4746 33.2865 31.9656C34.8524 30.4566 35.6354 28.6347 35.6354 26.5C35.6354 24.3653 34.8524 22.5434 33.2865 21.0344C31.7205 19.5253 29.8299 18.7708 27.6146 18.7708C25.3611 18.7708 23.4609 19.5253 21.9141 21.0344C20.3672 22.5434 19.5937 24.3653 19.5937 26.5C19.5937 28.6347 20.3672 30.4566 21.9141 31.9656C23.4609 33.4746 25.3611 34.2292 27.6146 34.2292Z" fill="#1D1B20"/>
</svg>
